{"title":"Peacock-AC3-5,1-DVDRip[Eng]2010 2Lions-Team","uid":5505152,"size":1050703890,"categoryP":"video","categoryS":"movies","magnet":"?xt=urn:btih:1887bd5b7957d1b787b57ae73a1e930593f5c6a1&amp;dn=Peacock-AC3-5%2C1-DVDRip%5BEng%5D2010+2Lions-Team&amp;tr=udp%3A%2F%2Ftracker.openbittorrent.com%3A80&amp;tr=udp%3A%2F%2Fopen.demonii.com%3A1337&amp;tr=udp%3A%2F%2Ftracker.coppersurfer.tk%3A6969&amp;tr=udp%3A%2F%2Fexodus.desync.com%3A6969","seeders":0,"leechers":0,"uploader":"FatFreddy31","files":-1,"time":1271775802,"description":"John Skillpa, a quiet bank clerk living in tiny Peacock, Nebraska, prefers to live an invisible life. This might have to do with John's secret: he has another \npersonality no one knows about, a woman who each morning does his chores and cooks him breakfast before he starts his day. Then, in a moment, everything changes.\n &lt;a href=&quot;\nhttp://www.imdb.com/title/tt1188113/&quot; rel=&quot;nofollow&quot; target=&quot;_NEW&quot;&gt;\nhttp://www.imdb.com/title/tt1188113/&lt;/a&gt;\n\nSubtitles (srt) : Arabic, Dutch, English, Indonesian, Romanian and Spanish.\n\nCovers included.\n\nJohn Skillpa (Cillian Murphy) is een rustige bankmedewerker met een geheim alter ego, zijn eigen vrouw, genaamd Emma. Wanneer een trein door een ongeluk in zijn \nachtertuin terechtkomt, wordt zijn geheim blootgesteld aan de buitenwereld. John moet er nu voor zorgen dit goed te praten en beweert dat Emma zijn echtgenote is.\n &lt;a href=&quot;\nhttp://www.moviemeter.nl/film/63063&quot; rel=&quot;nofollow&quot; target=&quot;_NEW&quot;&gt;\nhttp://www.moviemeter.nl/film/63063&lt;/a&gt;\n\nOndertitels (srt) : Arabisch, Nederlands, Engels, Indonesisch, Roemeens en Spaans.\n\nHoesjes bijgesloten.\n\nGeneral\nComplete name                    : Peacock-AC3-5,1-DVDRip[Eng]2010.avi\nFormat                           : AVI\nFormat/Info                      : Audio Video Interleave\nFile size                        : 1 001 MiB\nDuration                         : 1h 30mn\nOverall bit rate                 : 1 543 Kbps\nWriting application              : VirtualDubMod 1.5.4.1 (build 2178/release)\nWriting library                  : VirtualDubMod build 2178/release\n\nVideo\nID                               : 0\nFormat                           : MPEG-4 Visual\nFormat profile                   : Simple@L3\nFormat settings, BVOP            : No\nFormat settings, QPel            : No\nFormat settings, GMC             : No warppoints\nFormat settings, Matrix          : Default (H.263)\nCodec ID                         : XVID\nCodec ID/Hint                    : XviD\nDuration                         : 1h 30mn\nBit rate                         : 1 086 Kbps\nWidth                            : 624 pixels\nHeight                           : 336 pixels\nDisplay aspect ratio             : 1.857\nFrame rate                       : 23.976 fps\nResolution                       : 24 bits\nColorimetry                      : 4:2:0\nScan type                        : Progressive\nBits/(Pixel*Frame)               : 0.216\nStream size                      : 704 MiB (70%)\nWriting library                  : XviD 1.1.2 (UTC 2006-11-01)\n\nAudio\nID                               : 1\nFormat                           : AC-3\nFormat/Info                      : Audio Coding 3\nCodec ID                         : 2000\nDuration                         : 1h 30mn\nBit rate mode                    : Constant\nBit rate                         : 448 Kbps\nChannel(s)                       : 6 channels\nChannel positions                : Front: L C R, Surround: L R, LFE\nSampling rate                    : 48.0 KHz\nStream size                      : 291 MiB (29%)\nAlignment                        : Split accross interleaves\nInterleave, duration             : 42 ms (1.00 video frame)\nInterleave, preload duration     : 500 ms\n\nBrought to you by \n2Lions Team\n\nmeer zien??\nKom dan eens kijken op ons forum \n                    &lt;a href=&quot;\nhttp://www.2lions.ons-forum.nl&quot; rel=&quot;nofollow&quot; target=&quot;_NEW&quot;&gt;\nhttp://www.2lions.ons-forum.nl&lt;/a&gt;\n\n2Lions the site to be for all your Dutch MOVIES and more\n\n******************************************\n\nDON T HIT AND RUN Niet gelijk afhaken als de FILM binnen is blijf seeden. \n\nDon`t quit after you finished the download, but keep seeding\n\nThere are fake torrents from uploaders who use our team name.\nThose are not ours, or members from our team.\nWe 2Lions-Team are not responsible for the fake posts on our name\n\nWij 2Lions-Team zijn niet verantwoordelijk voor die zieke FAKE posten die op onze naam worden gedaan\n\nPlease check our site !!!\n\nto the fakers , get a life !!!","torrent":{"xt":"urn:btih:1887bd5b7957d1b787b57ae73a1e930593f5c6a1","amp;dn":"Peacock-AC3-5%2C1-DVDRip%5BEng%5D2010+2Lions-Team","amp;tr":["udp%3A%2F%2Ftracker.openbittorrent.com%3A80","udp%3A%2F%2Fopen.demonii.com%3A1337","udp%3A%2F%2Ftracker.coppersurfer.tk%3A6969","udp%3A%2F%2Fexodus.desync.com%3A6969"],"infoHash":"1887bd5b7957d1b787b57ae73a1e930593f5c6a1","infoHashBuffer":{"type":"Buffer","data":[24,135,189,91,121,87,209,183,135,181,122,231,58,30,147,5,147,245,198,161]},"announce":[],"urlList":[]}}